<?xml version="1.0" encoding="UTF-8"?>
<svg id="Capa_1" data-name="Capa 1" xmlns="http://www.w3.org/2000/svg" viewBox="0 0 500 500">
  <defs>
    <style>
      .cls-1 {
        fill: #acd034;
        stroke-width: 0px;
      }
    </style>
  </defs>
  <path class="cls-1" d="m260.65,200.42c-8.39,0-81.97-.48-81.97-17.13s73.58-17.13,81.97-17.13,81.97.48,81.97,17.13-73.58,17.13-81.97,17.13Zm-74.06-17.13c4.28,3.56,28.97,9.62,74.06,9.62s69.78-6.06,74.07-9.62c-4.28-3.56-28.97-9.62-74.07-9.62s-69.78,6.06-74.06,9.62Z"/>
  <g>
    <path class="cls-1" d="m260.65,235.77c-8.39,0-81.97-.48-81.97-17.13v-34.14c0-2.07,1.68-3.76,3.76-3.76s3.76,1.68,3.76,3.76v33.76c2.88,3.48,27.69,10,74.46,10s71.58-6.52,74.46-10v-33.35c0-2.07,1.68-3.76,3.76-3.76s3.76,1.68,3.76,3.76v33.74c0,16.65-73.58,17.13-81.97,17.13Z"/>
    <rect class="cls-1" x="194.55" y="192.81" width="3.76" height="31.91"/>
    <rect class="cls-1" x="212.78" y="196.05" width="3.76" height="33.64"/>
    <rect class="cls-1" x="235.48" y="197.27" width="3.76" height="34.24"/>
    <rect class="cls-1" x="256.95" y="198.69" width="3.76" height="33.64"/>
    <rect class="cls-1" x="277.01" y="198.28" width="3.76" height="34.04"/>
    <rect class="cls-1" x="294.24" y="196.66" width="3.76" height="33.03"/>
    <rect class="cls-1" x="313.28" y="195.04" width="3.76" height="31.81"/>
    <rect class="cls-1" x="325.03" y="191.19" width="3.76" height="33.23"/>
  </g>
  <path class="cls-1" d="m260.65,249.27c-8.37,0-81.78-.48-81.78-16.95,0-5.67,7.59-8.53,13.31-10.19l2,6.86c-5.04,1.47-7.07,2.74-7.84,3.37,3.94,3.58,28.59,9.77,74.32,9.77s70.38-6.19,74.32-9.77c-.76-.63-2.78-1.9-7.81-3.36l2-6.86c5.7,1.66,13.28,4.52,13.28,10.19,0,16.47-73.41,16.95-81.78,16.95Z"/>
  <g>
    <path class="cls-1" d="m260.65,284.81c-8.39,0-81.97-.48-81.97-17.13v-34.14c0-2.07,1.68-3.76,3.76-3.76s3.76,1.68,3.76,3.76v33.76c2.88,3.48,27.69,10,74.46,10s71.58-6.52,74.46-10v-33.35c0-2.07,1.68-3.76,3.76-3.76s3.76,1.68,3.76,3.76v33.74c0,16.65-73.58,17.13-81.97,17.13Z"/>
    <rect class="cls-1" x="194.55" y="241.84" width="3.76" height="31.91"/>
    <rect class="cls-1" x="212.78" y="245.09" width="3.76" height="33.64"/>
    <rect class="cls-1" x="235.48" y="246.3" width="3.76" height="34.24"/>
    <rect class="cls-1" x="256.95" y="247.72" width="3.76" height="33.64"/>
    <rect class="cls-1" x="277.01" y="247.31" width="3.76" height="34.04"/>
    <rect class="cls-1" x="294.24" y="245.69" width="3.76" height="33.03"/>
    <rect class="cls-1" x="313.28" y="244.07" width="3.76" height="31.81"/>
    <rect class="cls-1" x="325.03" y="240.22" width="3.76" height="33.23"/>
  </g>
  <g>
    <path class="cls-1" d="m239.35,298.3c-8.37,0-81.78-.48-81.78-16.95,0-5.82,8.05-8.73,14.1-10.42.09-.02.18-.05.27-.06l10.77-2.13c1.92-.38,3.81.87,4.2,2.81.38,1.93-.88,3.81-2.81,4.2l-10.63,2.1c-5.48,1.54-7.63,2.88-8.42,3.54,3.94,3.58,28.59,9.77,74.32,9.77s70.38-6.19,74.32-9.77c-.29-.24-.76-.57-1.51-.97-1.74-.93-2.4-3.09-1.47-4.83.93-1.74,3.09-2.4,4.83-1.47,3.73,1.99,5.61,4.42,5.61,7.24,0,16.47-73.41,16.95-81.78,16.95Zm74.74-16.49h.02-.02Z"/>
    <g>
      <path class="cls-1" d="m239.35,333.84c-8.39,0-81.97-.48-81.97-17.13v-34.14c0-2.07,1.68-3.76,3.76-3.76s3.76,1.68,3.76,3.76v33.76c2.88,3.48,27.69,10,74.46,10s71.58-6.52,74.46-10v-33.35c0-2.07,1.68-3.76,3.76-3.76s3.76,1.68,3.76,3.76v33.74c0,16.65-73.58,17.13-81.97,17.13Z"/>
      <rect class="cls-1" x="173.23" y="290.88" width="3.76" height="31.91"/>
      <rect class="cls-1" x="191.47" y="294.12" width="3.76" height="33.64"/>
      <rect class="cls-1" x="214.17" y="295.34" width="3.76" height="34.24"/>
      <rect class="cls-1" x="235.64" y="296.76" width="3.76" height="33.64"/>
      <rect class="cls-1" x="255.7" y="296.35" width="3.76" height="34.04"/>
      <rect class="cls-1" x="272.93" y="294.73" width="3.76" height="33.03"/>
      <rect class="cls-1" x="291.97" y="293.11" width="3.76" height="31.81"/>
      <rect class="cls-1" x="303.73" y="289.26" width="3.76" height="33.23"/>
    </g>
  </g>
</svg>