<svg xmlns="http://www.w3.org/2000/svg" xmlns:xlink="http://www.w3.org/1999/xlink" width="1920" height="911" viewBox="0 0 1920 911">
  <defs>
    <clipPath id="clip-path">
      <rect id="Rectángulo_6" data-name="Rectángulo 6" width="447.27" height="85.252" fill="none"/>
    </clipPath>
    <clipPath id="clip-path-2">
      <rect id="Rectángulo_94" data-name="Rectángulo 94" width="267.556" height="56" fill="none"/>
    </clipPath>
    <clipPath id="clip-path-3">
      <rect id="Rectángulo_226" data-name="Rectángulo 226" width="1920" height="911" transform="translate(0 169)" fill="#006b5a" stroke="#707070" stroke-width="1"/>
    </clipPath>
    <clipPath id="clip-path-4">
      <rect id="Rectángulo_92" data-name="Rectángulo 92" width="300.75" height="300.75" fill="none"/>
    </clipPath>
    <clipPath id="clip-path-5">
      <rect id="Rectángulo_93" data-name="Rectángulo 93" width="381.847" height="381.845" fill="none"/>
    </clipPath>
  </defs>
  <g id="Grupo_138" data-name="Grupo 138" transform="translate(0 -169)">
    <g id="Grupo_11" data-name="Grupo 11" transform="translate(180 313)">
      <g id="Grupo_10" data-name="Grupo 10" clip-path="url(#clip-path)">
        <text id="APUESTAS" transform="translate(0 67.45)" fill="#fff" font-size="80.127" font-family="PPRightGrotesk-WideBlack, PP Right Grotesk" font-weight="800"><tspan x="0" y="0">APUE</tspan><tspan y="0" letter-spacing="-0.009em">S</tspan><tspan y="0" letter-spacing="-0.063em">T</tspan><tspan y="0" letter-spacing="-0.021em">A</tspan><tspan y="0">S</tspan></text>
      </g>
    </g>
    <g id="Rectángulo_56" data-name="Rectángulo 56" transform="translate(0 169)" fill="#006b5a" stroke="#707070" stroke-width="1">
      <rect width="1920" height="911" stroke="none"/>
      <rect x="0.5" y="0.5" width="1919" height="910" fill="none"/>
    </g>
    <g id="Grupo_115" data-name="Grupo 115" transform="translate(0 50)">
      <text id="APUESTAS_HOY_Y_CONSIGUE_EL_ÉXITO" data-name="APUESTAS HOY Y CONSIGUE 
EL ÉXITO" transform="translate(193 400)" fill="#fff" font-size="100" font-family="PPRightGrotesk-WideBlack, PP Right Grotesk" font-weight="800" letter-spacing="-0.021em"><tspan x="0" y="90">APUESTAS HOY </tspan><tspan x="0" y="186.152">Y CONSIGUE </tspan><tspan x="0" y="282.304">EL ÉXITO</tspan></text>
      <g id="Grupo_109" data-name="Grupo 109" transform="translate(130 -69)">
        <g id="Grupo_57" data-name="Grupo 57" transform="translate(542 696)">
          <g id="Grupo_56" data-name="Grupo 56" clip-path="url(#clip-path-2)">
            <path id="Trazado_42" data-name="Trazado 42" d="M239.556,56H28A28,28,0,0,1,28,0H239.556a28,28,0,0,1,0,56" fill="#acd034"/>
          </g>
        </g>
        <path id="Trazado_17" data-name="Trazado 17" d="M4.541,0,0,4.323,13.491,17.165.068,29.945,4.61,34.268l17.963-17.1-2.29-2.18-2.251-2.143Z" transform="translate(766.213 706.866)" fill="#006b5a"/>
      </g>
    </g>
    <g id="Grupo_58" data-name="Grupo 58" transform="translate(1560 706.081) rotate(-22)">
      <path id="Trazado_43" data-name="Trazado 43" d="M122.888,29.424,157.2,97.7l54.072-34.15-25.759,80.068H56.386L27.947,63.986,83.105,98.465ZM121.7,0,79.562,76.8,0,27.965,41.908,157.49H201.331L241.045,26.782,166.211,76.409Z" fill="#add99c"/>
      <rect id="Rectángulo_95" data-name="Rectángulo 95" width="164.032" height="23.086" transform="translate(39.184 173.353)" fill="#add99c"/>
    </g>
    <g id="Enmascarar_grupo_9" data-name="Enmascarar grupo 9" clip-path="url(#clip-path-3)">
      <g id="Grupo_53" data-name="Grupo 53" transform="translate(1700 247.877)">
        <path id="Trazado_39" data-name="Trazado 39" d="M57.463,89.894l-6.379,59.362,54.486,24.412,40.055-44.276L115.893,77.617Z" transform="translate(35.838 54.453)" fill="#add99c"/>
        <g id="Grupo_52" data-name="Grupo 52">
          <g id="Grupo_51" data-name="Grupo 51" clip-path="url(#clip-path-4)">
            <path id="Trazado_40" data-name="Trazado 40" d="M299.6,132.526a146.127,146.127,0,1,0,1.154,17.848,150.188,150.188,0,0,0-1.154-17.848m-56.167-6.842-25.181,54.135L259.811,218.5a129.563,129.563,0,0,1-47.858,45.285l-.041-.208-59.267-7.22-10.528,22.629a128.53,128.53,0,0,1-83.3-37.723l7.917-17.781-39.9-35.925a127.35,127.35,0,0,1-2.151-66.007l31.933,5.059,27.107-53.2L64.538,54.223a128.4,128.4,0,0,1,85.835-32.881c1.222,0,2.4.15,3.618.184l-15.724,19.7,32.86,49.849,57.562-15.85,1.2-26.33a128.754,128.754,0,0,1,47.732,80.957Z" fill="#add99c"/>
          </g>
        </g>
      </g>
      <g id="Grupo_55" data-name="Grupo 55" transform="translate(1116.5 809.321)">
        <g id="Grupo_54" data-name="Grupo 54" clip-path="url(#clip-path-5)">
          <path id="Trazado_41" data-name="Trazado 41" d="M190.924,0C85.48,0,0,85.479,0,190.921S85.48,381.846,190.924,381.846s190.922-85.48,190.922-190.924S296.364,0,190.924,0m15.792,173.183V109.8l144.271,83.3A159.654,159.654,0,0,1,339.76,250ZM170.6,171.8l-52.575,30.356V48.353A159,159,0,0,1,170.6,32.107Zm174.6-23.754L206.717,68.094V31.605A160.21,160.21,0,0,1,345.2,148.049M81.909,73.7V223.01L40.834,246.726A160.23,160.23,0,0,1,81.909,73.7m-24.7,205.276,130.252-75.2,56.378,32.551L97.408,320.864a160.922,160.922,0,0,1-40.195-41.893m133.711,72.043a159.764,159.764,0,0,1-56.032-10.089L279.96,257.172l42.735,24.673a159.9,159.9,0,0,1-131.77,69.17" transform="translate(0 -0.001)" fill="#add99c"/>
        </g>
      </g>
    </g>
  </g>
</svg>
