<?xml version="1.0" encoding="UTF-8"?>
<svg id="Capa_1" data-name="Capa 1" xmlns="http://www.w3.org/2000/svg" viewBox="0 0 500 500">
  <defs>
    <style>
      .cls-1 {
        fill: #fff;
      }

      .cls-1, .cls-2 {
        stroke-width: 0px;
      }

      .cls-2 {
        fill: #006b5a;
      }
    </style>
  </defs>
  <path class="cls-2" d="m356.3,169.17h-42.59v-1.45c0-22.24-18.03-40.27-40.27-40.27h-60.38c-22.24,0-40.27,18.03-40.27,40.27v1.45h-45.51c-26.68,0-48.31,21.63-48.31,48.31v110.76c0,26.68,21.63,48.31,48.31,48.31h229.02c26.68,0,48.31-21.63,48.31-48.31v-110.76c0-26.68-21.63-48.31-48.31-48.31Z"/>
  <path class="cls-1" d="m239.45,218.66c-31.33,0-56.72,25.4-56.72,56.72s25.4,56.72,56.72,56.72,56.72-25.39,56.72-56.72-25.4-56.72-56.72-56.72Zm0,88.6c-17.6,0-31.88-14.27-31.88-31.88s14.27-31.88,31.88-31.88,31.88,14.27,31.88,31.88-14.27,31.88-31.88,31.88Z"/>
</svg>