<?xml version="1.0" encoding="UTF-8"?>
<svg id="Capa_1" data-name="Capa 1" xmlns="http://www.w3.org/2000/svg" viewBox="0 0 500 500">
  <defs>
    <style>
      .cls-1 {
        fill: #2d695b;
      }

      .cls-1, .cls-2 {
        stroke-width: 0px;
      }

      .cls-2 {
        fill: #fff;
      }
    </style>
  </defs>
  <path class="cls-1" d="M316.33,393.59h-132.56c-4.25,0-7.8-3.23-8.2-7.46l-23.43-200.38c-.46-4.84,3.34-9.02,8.2-9.02h179.42c4.86,0,8.67,4.19,8.2,9.02l-23.43,200.38c-.4,4.23-3.96,7.46-8.2,7.46Z"/>
  <g>
    <rect class="cls-2" x="200.72" y="206.14" width="5.19" height="171.12" transform="translate(-25.41 19.47) rotate(-5.16)"/>
    <rect class="cls-2" x="294.2" y="206.14" width="5.19" height="171.12" transform="translate(27.44 -25.51) rotate(5.16)"/>
    <rect class="cls-2" x="247.46" y="206.14" width="5.19" height="171.12"/>
  </g>
  <path class="cls-1" d="M343.92,140.22l-.42-3.7c-.47-4.11-4.18-7.05-8.29-6.58l-14.42,1.65-2.33-19.89c-.39-3.29-3.36-5.64-6.65-5.25l-132.01,15.46c-3.29.39-5.64,3.36-5.25,6.65l2.29,19.54-18.21,2.09c-4.11.47-7.05,4.18-6.58,8.29l.42,3.7c.47,4.11,4.18,7.05,8.29,6.58l176.59-20.25c4.11-.47,7.05-4.18,6.58-8.29Z"/>
</svg>