<?xml version="1.0" encoding="UTF-8"?>
<svg id="Capa_1" data-name="Capa 1" xmlns="http://www.w3.org/2000/svg" viewBox="0 0 390.33 78.35">
  <defs>
    <style>
      .cls-1 {
        letter-spacing: -.02em;
      }

      .cls-2 {
        letter-spacing: -.04em;
      }

      .cls-3 {
        font-family: PPRightGrotesk-WideBlack, 'PP Right Grotesk';
        font-size: 25px;
        font-weight: 800;
      }

      .cls-3, .cls-4 {
        isolation: isolate;
      }

      .cls-3, .cls-5 {
        fill: #fff;
      }

      .cls-6 {
        letter-spacing: -.01em;
      }

      .cls-7 {
        letter-spacing: -.03em;
      }

      .cls-8 {
        letter-spacing: -.03em;
      }

      .cls-9 {
        fill: #add99c;
      }

      .cls-9, .cls-5, .cls-10 {
        stroke-width: 0px;
      }

      .cls-10 {
        fill: #006b5a;
      }
    </style>
  </defs>
  <rect id="Rectángulo_232" data-name="Rectángulo 232" class="cls-9" x=".04" y=".28" width="390" height="78"/>
  <g id="PORRAS" class="cls-4">
    <text class="cls-3" transform="translate(39.84 36.42)"><tspan class="cls-1" x="0" y="0">ENCUENT</tspan><tspan class="cls-6" x="120.43" y="0">R</tspan><tspan class="cls-2" x="138.56" y="0">A</tspan><tspan class="cls-1" x="0" y="21">TU </tspan><tspan class="cls-8" x="37.66" y="21">B</tspan><tspan class="cls-1" x="55.15" y="21">A</tspan><tspan class="cls-7" x="73.39" y="21">R</tspan></text>
  </g>
  <path class="cls-10" d="m334.56,25.48h-2.07v-1.39h-25.22v30.33c0,1.59,1.29,2.87,2.87,2.87h19.48c1.59,0,2.87-1.29,2.87-2.87v-1.74h2.07c3.2,0,5.79-2.59,5.79-5.79v-15.62c0-3.2-2.59-5.79-5.79-5.79Zm2.86,19.55c0,2.43-.82,4.41-3.25,4.41h-1.68v-20.71h1.68c2.43,0,3.25,1.97,3.25,4.41v11.9Z"/>
  <rect class="cls-5" x="312.58" y="30.83" width="1.5" height="18.66" rx=".75" ry=".75"/>
  <rect class="cls-5" x="318.62" y="30.83" width="1.5" height="18.66" rx=".75" ry=".75"/>
  <rect class="cls-5" x="324.66" y="30.83" width="1.5" height="18.66" rx=".75" ry=".75"/>
  <path class="cls-5" d="m333.14,20.3c-.13-.19-.28-.37-.48-.46-.17-.07-.36-.08-.55-.07-.71.04-1.42.29-2,.7.43-.34.85-.7,1.16-1.15.39-.55.59-1.27.39-1.91-.12-.36-.35-.67-.62-.93-.98-.96-2.47-1.37-3.8-1.05-1.33.32-2.47,1.37-2.91,2.67.16-.55-.34-1.12-.91-1.23-.56-.11-1.13.11-1.64.38-.63.33-1.21.73-1.75,1.19.7-.79,1.44-1.69,1.42-2.75-.03-1.35-1.4-2.39-2.75-2.43-1.35-.04-2.61.69-3.61,1.61-1.1,1.01-2.03,2.46-1.73,3.92-.37-.97-1.45-1.55-2.49-1.58-1.04-.04-2.05.37-2.96.87-.91.49-1.83,1.15-2.18,2.13-.2.56-.19,1.16-.07,1.74-.17.14-.31.33-.39.53-.15.38-.13.8-.09,1.2.08.69.26,1.38.52,2.02.09.21.19.43.36.58.22.19.52.25.81.27.62.05,1.24-.02,1.83-.21,1.05,1.82,3.62,2.55,5.47,1.55.52,1.2,1.91,1.84,3.21,1.84s2.55-.53,3.72-1.11c.63-.31,1.27-.65,1.76-1.17.49-.51.82-1.22.7-1.92.33.67,1.19.85,1.93.95,1.36.18,2.75.35,4.11.14,1.36-.21,2.72-.84,3.5-1.97.89-1.27.89-3.09.02-4.37Z"/>
</svg>