<svg xmlns="http://www.w3.org/2000/svg" xmlns:xlink="http://www.w3.org/1999/xlink" width="688" height="390" viewBox="0 0 688 390">
  <defs>
    <filter id="Rectángulo_59" x="0" y="0" width="688" height="390" filterUnits="userSpaceOnUse">
      <feOffset dy="10" input="SourceAlpha"/>
      <feGaussianBlur stdDeviation="10" result="blur"/>
      <feFlood flood-opacity="0.161"/>
      <feComposite operator="in" in2="blur"/>
      <feComposite in="SourceGraphic"/>
    </filter>
    <clipPath id="clip-path">
      <rect id="Rectángulo_195" data-name="Rectángulo 195" width="110" height="137.603" fill="none"/>
    </clipPath>
  </defs>
  <g id="Grupo_137" data-name="Grupo 137" transform="translate(-1180 -527)">
    <g id="Componente_8_1" data-name="Componente 8 – 1" transform="translate(1210 547)">
      <g transform="matrix(1, 0, 0, 1, -30, -20)" filter="url(#Rectángulo_59)">
        <g id="Rectángulo_59-2" data-name="Rectángulo 59" transform="translate(30 20)" fill="#006b5a" stroke="#707070" stroke-width="1">
          <rect width="628" height="330" rx="36" stroke="none"/>
          <rect x="0.5" y="0.5" width="627" height="329" rx="35.5" fill="none"/>
        </g>
      </g>
      <text id="ENCUENTRA_TU_BAR" data-name="ENCUENTRA 
TU BAR" transform="translate(39 36)" fill="#abcf33" font-size="55" font-family="PPRightGrotesk-WideBlack, PP Right Grotesk" font-weight="800" letter-spacing="-0.021em"><tspan x="0" y="49">ENCUENTRA </tspan><tspan x="0" y="99">TU BAR</tspan></text>
      <path id="Trazado_20" data-name="Trazado 20" d="M6.008,0,0,5.72,17.85,22.711.09,39.62,6.1,45.34,29.866,22.711l-3.029-2.884-2.978-2.835Z" transform="translate(552.647 47.66)" fill="#abcf33"/>
      <g id="Grupo_112" data-name="Grupo 112" transform="translate(375 148)">
        <g id="Grupo_111" data-name="Grupo 111" clip-path="url(#clip-path)">
          <path id="Trazado_108" data-name="Trazado 108" d="M121.03,187.242h-6.466V182.9H35.731v94.78a8.974,8.974,0,0,0,8.974,8.974h60.886a8.974,8.974,0,0,0,8.974-8.974v-5.429h6.466a18.088,18.088,0,0,0,18.088-18.088V205.33a18.088,18.088,0,0,0-18.088-18.088m8.939,61.094c0,7.605-2.557,13.771-10.162,13.771h-5.243V197.387h5.243c7.605,0,10.162,6.165,10.162,13.771Z" transform="translate(-29.118 -149.052)" fill="#abcf33"/>
          <path id="Trazado_109" data-name="Trazado 109" d="M127.8,355h0a2.346,2.346,0,0,1-2.346-2.346V299.032a2.346,2.346,0,0,1,4.692,0v53.624A2.346,2.346,0,0,1,127.8,355" transform="translate(-102.234 -241.779)" fill="#fff"/>
          <path id="Trazado_110" data-name="Trazado 110" d="M229.853,355h0a2.346,2.346,0,0,1-2.346-2.346V299.032a2.346,2.346,0,0,1,4.692,0v53.624A2.346,2.346,0,0,1,229.853,355" transform="translate(-185.403 -241.779)" fill="#fff"/>
          <path id="Trazado_111" data-name="Trazado 111" d="M331.909,355h0a2.346,2.346,0,0,1-2.346-2.346V299.032a2.346,2.346,0,0,1,4.692,0v53.624A2.346,2.346,0,0,1,331.909,355" transform="translate(-268.571 -241.779)" fill="#fff"/>
          <path id="Trazado_112" data-name="Trazado 112" d="M87.471,21.994a3.076,3.076,0,0,0-3.237-1.638,12.178,12.178,0,0,0-6.259,2.172A17.279,17.279,0,0,0,81.6,18.944a6.954,6.954,0,0,0,1.207-5.969,7.347,7.347,0,0,0-1.939-2.9,12.728,12.728,0,0,0-20.976,5.062c.488-1.719-1.078-3.492-2.831-3.835a8.013,8.013,0,0,0-5.121,1.182,28.633,28.633,0,0,0-5.462,3.726c2.183-2.481,4.5-5.3,4.427-8.6-.087-4.216-4.365-7.476-8.581-7.6S34.167,2.174,31.056,5.022c-3.449,3.158-6.33,7.682-5.411,12.267-1.152-3.046-4.52-4.836-7.774-4.948s-6.4,1.162-9.265,2.711S2.887,18.644,1.8,21.7a10.317,10.317,0,0,0-.221,5.45A3.967,3.967,0,0,0,.37,28.825,7.941,7.941,0,0,0,.1,32.588a24.033,24.033,0,0,0,1.627,6.32,4.6,4.6,0,0,0,1.136,1.811,4.358,4.358,0,0,0,2.527.842,14.877,14.877,0,0,0,5.723-.649A13.218,13.218,0,0,0,28.2,45.762c1.628,3.744,5.96,5.746,10.042,5.736s7.971-1.661,11.629-3.474a19.233,19.233,0,0,0,5.5-3.642,7.3,7.3,0,0,0,2.2-6c1.038,2.1,3.718,2.665,6.04,2.972,4.266.565,8.6,1.091,12.856.444s8.486-2.62,10.947-6.15a12.319,12.319,0,0,0,.057-13.651" transform="translate(0 0)" fill="#fff"/>
        </g>
      </g>
    </g>
  </g>
</svg>
