<?xml version="1.0" encoding="UTF-8"?>
<svg id="Capa_1" data-name="Capa 1" xmlns="http://www.w3.org/2000/svg" viewBox="0 0 1700 390">
  <defs>
    <style>
      .cls-1 {
        fill: #acd034;
        stroke-width: 0px;
      }
    </style>
  </defs>
  <g>
    <path class="cls-1" d="m225.61,138.98c-8.39,0-81.97-.48-81.97-17.13s73.58-17.13,81.97-17.13,81.97.48,81.97,17.13-73.58,17.13-81.97,17.13Zm-74.06-17.13c4.28,3.56,28.97,9.62,74.06,9.62s69.78-6.06,74.07-9.62c-4.28-3.56-28.97-9.62-74.07-9.62s-69.78,6.06-74.06,9.62Z"/>
    <g>
      <path class="cls-1" d="m225.61,174.34c-8.39,0-81.97-.48-81.97-17.13v-34.14c0-2.07,1.68-3.76,3.76-3.76s3.76,1.68,3.76,3.76v33.76c2.88,3.48,27.69,10,74.46,10s71.58-6.52,74.46-10v-33.35c0-2.07,1.68-3.76,3.76-3.76s3.76,1.68,3.76,3.76v33.74c0,16.65-73.58,17.13-81.97,17.13Z"/>
      <rect class="cls-1" x="159.51" y="131.37" width="3.76" height="31.91"/>
      <rect class="cls-1" x="177.74" y="134.62" width="3.76" height="33.64"/>
      <rect class="cls-1" x="200.44" y="135.83" width="3.76" height="34.24"/>
      <rect class="cls-1" x="221.92" y="137.25" width="3.76" height="33.64"/>
      <rect class="cls-1" x="241.97" y="136.84" width="3.76" height="34.04"/>
      <rect class="cls-1" x="259.2" y="135.22" width="3.76" height="33.03"/>
      <rect class="cls-1" x="278.24" y="133.6" width="3.76" height="31.81"/>
      <rect class="cls-1" x="290" y="129.75" width="3.76" height="33.23"/>
    </g>
    <path class="cls-1" d="m225.61,187.83c-8.37,0-81.78-.48-81.78-16.95,0-5.67,7.59-8.53,13.31-10.19l2,6.86c-5.04,1.47-7.07,2.74-7.84,3.37,3.94,3.58,28.59,9.77,74.32,9.77s70.38-6.19,74.32-9.77c-.76-.63-2.78-1.9-7.81-3.36l2-6.86c5.7,1.66,13.28,4.52,13.28,10.19,0,16.47-73.41,16.95-81.78,16.95Z"/>
    <g>
      <path class="cls-1" d="m225.61,223.37c-8.39,0-81.97-.48-81.97-17.13v-34.14c0-2.07,1.68-3.76,3.76-3.76s3.76,1.68,3.76,3.76v33.76c2.88,3.48,27.69,10,74.46,10s71.58-6.52,74.46-10v-33.35c0-2.07,1.68-3.76,3.76-3.76s3.76,1.68,3.76,3.76v33.74c0,16.65-73.58,17.13-81.97,17.13Z"/>
      <rect class="cls-1" x="159.51" y="180.41" width="3.76" height="31.91"/>
      <rect class="cls-1" x="177.74" y="183.65" width="3.76" height="33.64"/>
      <rect class="cls-1" x="200.44" y="184.87" width="3.76" height="34.24"/>
      <rect class="cls-1" x="221.92" y="186.28" width="3.76" height="33.64"/>
      <rect class="cls-1" x="241.97" y="185.88" width="3.76" height="34.04"/>
      <rect class="cls-1" x="259.2" y="184.26" width="3.76" height="33.03"/>
      <rect class="cls-1" x="278.24" y="182.64" width="3.76" height="31.81"/>
      <rect class="cls-1" x="290" y="178.79" width="3.76" height="33.23"/>
    </g>
    <g>
      <path class="cls-1" d="m204.31,236.86c-8.37,0-81.78-.48-81.78-16.95,0-5.82,8.05-8.73,14.1-10.42.09-.02.18-.05.27-.06l10.77-2.13c1.92-.38,3.81.87,4.2,2.81.38,1.93-.88,3.81-2.81,4.2l-10.63,2.1c-5.48,1.54-7.63,2.88-8.42,3.54,3.94,3.58,28.59,9.77,74.32,9.77s70.38-6.19,74.32-9.77c-.29-.24-.76-.57-1.51-.97-1.74-.93-2.4-3.09-1.47-4.83.93-1.74,3.09-2.4,4.83-1.47,3.73,1.99,5.61,4.42,5.61,7.24,0,16.47-73.41,16.95-81.78,16.95Zm74.74-16.49h.02-.02Z"/>
      <g>
        <path class="cls-1" d="m204.31,272.41c-8.39,0-81.97-.48-81.97-17.13v-34.14c0-2.07,1.68-3.76,3.76-3.76s3.76,1.68,3.76,3.76v33.76c2.88,3.48,27.69,10,74.46,10s71.58-6.52,74.46-10v-33.35c0-2.07,1.68-3.76,3.76-3.76s3.76,1.68,3.76,3.76v33.74c0,16.65-73.58,17.13-81.97,17.13Z"/>
        <rect class="cls-1" x="138.19" y="229.44" width="3.76" height="31.91"/>
        <rect class="cls-1" x="156.43" y="232.68" width="3.76" height="33.64"/>
        <rect class="cls-1" x="179.13" y="233.9" width="3.76" height="34.24"/>
        <rect class="cls-1" x="200.6" y="235.32" width="3.76" height="33.64"/>
        <rect class="cls-1" x="220.66" y="234.91" width="3.76" height="34.04"/>
        <rect class="cls-1" x="237.89" y="233.29" width="3.76" height="33.03"/>
        <rect class="cls-1" x="256.93" y="231.67" width="3.76" height="31.81"/>
        <rect class="cls-1" x="268.69" y="227.82" width="3.76" height="33.23"/>
      </g>
    </g>
  </g>
  <g>
    <path class="cls-1" d="m374.63,267.22V107.86h70.92l21.86,53.5c3.07,7.51,7.4,20.6,12.29,39.16h2.39c5.01-18.55,9.45-31.87,12.41-39.27l21.29-53.39h70.35v159.36h-56.92v-50.43c0-8.99.23-18.55,1.37-32.1l-2.28-.34-27.43,82.87h-40.98l-27.32-82.87-2.39.34c1.02,13.55,1.37,23.11,1.37,32.1v50.43h-56.92Z"/>
    <path class="cls-1" d="m603.19,267.22V107.86h58.96v159.36h-58.96Z"/>
    <path class="cls-1" d="m719.07,267.22V107.86h87.99c43.26,0,63.4,18.1,63.4,55.78v.46c0,37.45-20.15,55.55-63.4,55.55h-29.03v47.58h-58.96Zm58.96-85.71h17.07c11.5,0,17.07-5.69,17.07-17.3v-.46c0-11.95-5.58-17.76-17.07-17.76h-17.07v35.52Z"/>
    <path class="cls-1" d="m880.13,188.11v-.46c0-56.12,28-83.21,85.94-83.21s85.94,27.09,85.94,83.21v.46c0,55.66-28,82.64-85.94,82.64s-85.94-26.98-85.94-82.64Zm111.55,7.17v-13.89c0-24.25-8.31-35.97-25.61-35.97s-25.61,11.72-25.61,35.97v13.89c0,23.22,8.42,34.38,25.61,34.38s25.61-11.16,25.61-34.38Z"/>
    <path class="cls-1" d="m1066.24,267.22V107.86h91.98c42.23,0,63.29,16.05,63.29,47.35v.46c0,22.65-11.04,35.06-32.67,38.59v2.39c15.14,3.87,21.06,9.33,24.82,25.73l3.64,16.28c3.76,16.39,6.26,21.29,11.16,25.16l-.46,3.42h-62.72c-3.07-4.44-4.67-10.81-6.83-24.47l-2.28-13.66c-2.16-13.66-5.58-18.55-17.76-18.55h-13.2v56.69h-58.96Zm58.96-92.54h22.08c10.24,0,15.25-3.3,15.25-13.77v-.34c0-10.59-5.01-14-15.25-14h-22.08v28.12Z"/>
    <path class="cls-1" d="m1237.89,267.22V107.86h91.98c42.23,0,63.29,16.05,63.29,47.35v.46c0,22.65-11.04,35.06-32.67,38.59v2.39c15.14,3.87,21.06,9.33,24.82,25.73l3.64,16.28c3.76,16.39,6.26,21.29,11.16,25.16l-.46,3.42h-62.72c-3.07-4.44-4.67-10.81-6.83-24.47l-2.28-13.66c-2.16-13.66-5.58-18.55-17.76-18.55h-13.2v56.69h-58.96Zm58.96-92.54h22.08c10.24,0,15.25-3.3,15.25-13.77v-.34c0-10.59-5.01-14-15.25-14h-22.08v28.12Z"/>
    <path class="cls-1" d="m1403.85,267.22l50.43-159.36h72.51l50.88,159.36h-61.47l-4.21-17.42h-46.67l-4.21,17.42h-57.26Zm70.12-52.7h29.6l-7.85-33.35c-2.39-10.36-4.21-20.03-5.81-30.73h-2.28c-1.48,10.7-3.42,20.38-5.81,30.73l-7.85,33.35Z"/>
  </g>
</svg>