<?xml version="1.0" encoding="UTF-8"?>
<svg id="Capa_1" data-name="Capa 1" xmlns="http://www.w3.org/2000/svg" viewBox="0 0 500 500">
  <defs>
    <style>
      .cls-1 {
        fill: #2d695b;
        stroke-width: 0px;
      }
    </style>
  </defs>
  <path id="Levi_s_Online_en_Zalando-4" data-name="Levi s   Online en Zalando-4" class="cls-1" d="M322.65,316.35c-10.84-19.23-25.01-36.37-41.85-50.63-10.25-11.39-27.79-12.32-39.18-2.08-.73.66-1.42,1.35-2.08,2.08-16.84,14.26-31.01,31.41-41.85,50.63-1.36,2.31-.58,5.29,1.74,6.65,2.31,1.36,5.29.58,6.65-1.74,10.23-18.21,23.61-34.47,39.52-48,3.96-3.84,9.04-6.31,14.5-7.04,5.48.66,10.58,3.14,14.49,7.04,15.97,13.52,29.41,29.78,39.68,48,1.36,2.31,4.34,3.09,6.65,1.73,2.31-1.36,3.09-4.34,1.73-6.65h0v.02ZM260.16,245.97c21.48,0,38.89-17.41,38.89-38.89s-17.41-38.89-38.89-38.89-38.89,17.41-38.89,38.89h0c.03,21.47,17.42,38.86,38.89,38.89ZM260.16,177.92c16.11,0,29.17,13.06,29.17,29.17s-13.06,29.17-29.17,29.17-29.17-13.06-29.17-29.17h0c0-16.11,13.06-29.17,29.17-29.17Z"/>
</svg>