<svg xmlns="http://www.w3.org/2000/svg" xmlns:xlink="http://www.w3.org/1999/xlink" width="549.94" height="389.463" viewBox="0 0 549.94 389.463">
  <defs>
    <filter id="Trazado_16" x="0" y="0" width="549.94" height="389.463" filterUnits="userSpaceOnUse">
      <feOffset dy="10" input="SourceAlpha"/>
      <feGaussianBlur stdDeviation="10" result="blur"/>
      <feFlood flood-opacity="0.161"/>
      <feComposite operator="in" in2="blur"/>
      <feComposite in="SourceGraphic"/>
    </filter>
    <clipPath id="clip-path">
      <rect id="Rectángulo_63" data-name="Rectángulo 63" width="490" height="330" rx="36" transform="translate(-0.06 -0.062)" fill="#fbefeb"/>
    </clipPath>
    <clipPath id="clip-path-2">
      <rect id="Rectángulo_62" data-name="Rectángulo 62" width="166.237" height="165.804" fill="none"/>
    </clipPath>
  </defs>
  <g id="Grupo_136" data-name="Grupo 136" transform="translate(-654.06 -527.062)">
    <g id="Componente_9_1" data-name="Componente 9 – 1" transform="translate(684 547)">
      <g transform="matrix(1, 0, 0, 1, -29.94, -19.94)" filter="url(#Trazado_16)">
        <path id="Trazado_16-2" data-name="Trazado 16" d="M38.262,2.8,456.344,0a33.6,33.6,0,0,1,33.6,33.6V295.863a33.6,33.6,0,0,1-33.6,33.6H33.6A33.6,33.6,0,0,1,0,295.863V33.6C0,15.043,19.708,2.8,38.262,2.8Z" transform="translate(30 20)" fill="#fbefeb"/>
      </g>
      <text id="_Qué_es_MI_PORRA_" data-name="¿Qué es 
MI PORRA?" transform="translate(53 36)" fill="#016b5a" font-size="55" font-family="PPRightGrotesk-WideBlack, PP Right Grotesk" font-weight="800" letter-spacing="-0.021em"><tspan x="0" y="49">¿Qué es </tspan><tspan x="0" y="129">MI PORRA?</tspan></text>
      <g id="Enmascarar_grupo_2" data-name="Enmascarar grupo 2" transform="translate(0.06 0.062)" clip-path="url(#clip-path)">
        <g id="VOLEY" transform="translate(354.143 182.931)">
          <g id="Grupo_24" data-name="Grupo 24" clip-path="url(#clip-path-2)">
            <path id="Trazado_15" data-name="Trazado 15" d="M166.237,89.435l-.751-.229c.158-2.088.318-4.176.318-6.3a83.434,83.434,0,1,0-.693,10.219ZM107.541,71.5l-.057-.1L99.95,50.7,152.1,66.634A71.124,71.124,0,0,1,154.037,82.9c0,.932-.1,1.839-.14,2.763ZM61.218,82.148,40.687,25.742A70.706,70.706,0,0,1,68.381,13.259L87.856,66.768Zm82.724-35.637L92.729,30.856,85.835,11.916a70.987,70.987,0,0,1,58.108,34.6M27.384,38.49,46.39,90.709,16.414,108.014A70.683,70.683,0,0,1,27.384,38.49m-3.218,84.52L91.4,84.192,119.574,92.8,39.4,139.1a71.492,71.492,0,0,1-15.23-16.087M82.9,154.037a70.842,70.842,0,0,1-26.643-5.208l85.365-49.286,9.619,2.941A71.12,71.12,0,0,1,82.9,154.037" transform="translate(0 0)" fill="#006b5a"/>
          </g>
        </g>
      </g>
      <path id="Trazado_17" data-name="Trazado 17" d="M6.008,0,0,5.72,17.85,22.711.09,39.62,6.1,45.34,29.866,22.711l-3.029-2.884-2.978-2.835Z" transform="translate(417.721 36.191)" fill="#006b5a"/>
    </g>
    <g id="Grupo_129" data-name="Grupo 129" transform="matrix(0.839, 0.545, -0.545, 0.839, 728.231, 754.615)">
      <path id="Trazado_43" data-name="Trazado 43" d="M50.8,12.165,64.988,40.391,87.343,26.273l-10.649,33.1H23.311L11.554,26.453l22.8,14.254ZM50.315,0,32.893,31.752,0,11.561,17.326,65.11H83.235L99.653,11.072,68.715,31.589Z" fill="#006b5a"/>
      <rect id="Rectángulo_95" data-name="Rectángulo 95" width="67.814" height="9.544" transform="translate(16.2 71.668)" fill="#006b5a"/>
    </g>
  </g>
</svg>
