<?xml version="1.0" encoding="UTF-8"?>
<svg id="Capa_1" data-name="Capa 1" xmlns="http://www.w3.org/2000/svg" xmlns:xlink="http://www.w3.org/1999/xlink" viewBox="0 0 390.33 78.35">
  <defs>
    <style>
      .cls-1 {
        letter-spacing: -.02em;
      }

      .cls-2 {
        clip-path: url(#clippath);
      }

      .cls-3 {
        fill: none;
      }

      .cls-3, .cls-4, .cls-5 {
        stroke-width: 0px;
      }

      .cls-6 {
        fill: #fff;
        font-family: PPRightGrotesk-WideBlack, 'PP Right Grotesk';
        font-size: 25px;
        font-weight: 800;
      }

      .cls-6, .cls-7 {
        isolation: isolate;
      }

      .cls-8 {
        letter-spacing: -.08em;
      }

      .cls-9 {
        letter-spacing: -.12em;
      }

      .cls-4 {
        fill: #add99c;
      }

      .cls-5 {
        fill: #006b5a;
      }
    </style>
    <clipPath id="clippath">
      <rect class="cls-3" x="325.61" y="23.48" width="31.73" height="32.29"/>
    </clipPath>
  </defs>
  <rect id="Rectángulo_232" data-name="Rectángulo 232" class="cls-4" x=".04" y=".28" width="390" height="78"/>
  <g id="PORRAS" class="cls-7">
    <text class="cls-6" transform="translate(23.04 44.27)"><tspan class="cls-1" x="0" y="0">RESU</tspan><tspan class="cls-9" x="68.88" y="0">L</tspan><tspan class="cls-8" x="80.82" y="0">T</tspan><tspan class="cls-1" x="94.85" y="0">ADOS</tspan></text>
  </g>
  <g id="Grupo_128" data-name="Grupo 128">
    <g class="cls-2">
      <g id="Grupo_127" data-name="Grupo 127">
        <path id="Trazado_144" data-name="Trazado 144" class="cls-5" d="m350.93,27.27v-3.79h-19.06v3.79h-6.27v5.74c0,4.12,3.12,7.56,7.22,7.96,1.58,3.3,4.92,5.4,8.58,5.4h0c3.66,0,6.99-2.1,8.58-5.4,4.15-.34,7.35-3.8,7.36-7.97v-5.73h-6.4Zm-23.98,6.06v-4.1h4.92v7.61c0,.74.09,1.47.26,2.19-2.98-.19-5.28-2.71-5.19-5.7m22.26,3.17c.04,4.31-3.42,7.83-7.73,7.87-4.22.04-7.7-3.29-7.86-7.5v-9.6h-.02v-1.72h15.61v10.95Zm6.78-3.17c.09,3.04-2.28,5.59-5.32,5.71.17-.72.26-1.46.26-2.2v-7.62h5.06v4.11Z"/>
        <rect id="Rectángulo_235" data-name="Rectángulo 235" class="cls-5" x="333.51" y="53.48" width="15.95" height="2.29"/>
        <rect id="Rectángulo_236" data-name="Rectángulo 236" class="cls-5" x="339.94" y="44.68" width="3.05" height="9.55"/>
        <path id="Trazado_145" data-name="Trazado 145" class="cls-5" d="m342.01,26.76l-2.78,8.31h1.44l.06,6.1,2.98-7.88h-1.61l-.09-6.53Z"/>
      </g>
    </g>
  </g>
</svg>