<?xml version="1.0" encoding="UTF-8"?>
<svg id="Capa_1" data-name="Capa 1" xmlns="http://www.w3.org/2000/svg" viewBox="0 0 500 500">
  <defs>
    <style>
      .cls-1 {
        fill: #006b5a;
        stroke-width: 0px;
      }
    </style>
  </defs>
  <path class="cls-1" d="M397.92,251.7c-2.57-3.22-63.73-78.95-142.22-78.95s-139.66,75.72-142.22,78.95l-8.39,10.54,8.39,10.54c2.57,3.22,63.73,78.94,142.22,78.94s139.66-75.71,142.22-78.94l8.39-10.54-8.39-10.54ZM254.72,296.18c-15.6,0-28.29-15.22-28.29-33.93s12.69-33.94,28.29-33.94,28.29,15.22,28.29,33.94-12.69,33.93-28.29,33.93ZM149.49,262.24c11.35-11.75,32-30.69,57.33-43.15-8.89,11.73-14.24,26.77-14.24,43.15s5.35,31.41,14.25,43.14c-25.34-12.46-45.99-31.4-57.33-43.14ZM301.42,306.84c9.59-11.94,15.46-27.52,15.46-44.6s-5.86-32.67-15.46-44.6c26.76,12.39,48.67,32.37,60.48,44.6-11.81,12.22-33.72,32.21-60.48,44.6Z"/>
</svg>