<?xml version="1.0" encoding="UTF-8"?>
<svg id="Capa_1" data-name="Capa 1" xmlns="http://www.w3.org/2000/svg" viewBox="0 0 500 500">
  <defs>
    <style>
      .cls-1 {
        fill: #2d695b;
        stroke-width: 0px;
      }
    </style>
  </defs>
  <path class="cls-1" d="M310.1,349.62h-143.9c-12.15,0-22.04-9.89-22.04-22.04v-143.9c0-12.15,9.89-22.04,22.04-22.04h143.9c12.15,0,22.04,9.89,22.04,22.04v143.9c0,12.15-9.89,22.04-22.04,22.04ZM166.2,167.6c-8.87,0-16.08,7.21-16.08,16.08v143.9c0,8.87,7.21,16.08,16.08,16.08h143.9c8.87,0,16.08-7.21,16.08-16.08v-143.9c0-8.87-7.21-16.08-16.08-16.08h-143.9Z"/>
</svg>